<svg width="336" height="57" viewBox="0 0 336 57" fill="none" xmlns="http://www.w3.org/2000/svg">
<rect width="336" height="57" fill="#F5F5F5"/>
<g filter="url(#filter0_d_0_1)">
<path d="M9.73438 10.7969C9.65625 9.07812 9.13542 7.76302 8.17188 6.85156C7.20833 5.91406 6.02344 5.35417 4.61719 5.17188L4.8125 4.15625C5.48958 4.46875 6.34896 4.71615 7.39062 4.89844C8.43229 5.08073 9.57812 5.22396 10.8281 5.32812C12.1042 5.40625 13.4323 5.44531 14.8125 5.44531C16.2188 5.44531 17.599 5.41927 18.9531 5.36719C20.3333 5.28906 21.6484 5.1849 22.8984 5.05469C24.1745 4.92448 25.3203 4.76823 26.3359 4.58594C26.2318 5.26302 26.1146 6.03125 25.9844 6.89062C25.8802 7.75 25.7891 8.60938 25.7109 9.46875C25.6328 10.3281 25.5938 11.1615 25.5938 11.9688C25.5938 12.75 25.6589 13.4271 25.7891 14L25.0078 14.1172C24.6432 12.7109 24.2005 11.513 23.6797 10.5234C23.1849 9.50781 22.5078 8.72656 21.6484 8.17969C20.7891 7.60677 19.7083 7.28125 18.4062 7.20312C17.1042 7.125 15.4766 7.29427 13.5234 7.71094C13.3932 9.79427 13.2891 11.6432 13.2109 13.2578C13.1328 14.8724 13.0938 16.4479 13.0938 17.9844C14.3438 17.8021 15.3594 17.5677 16.1406 17.2812C16.9479 16.9948 17.599 16.6562 18.0938 16.2656C18.5885 15.849 18.9661 15.3672 19.2266 14.8203C19.513 14.2474 19.7734 13.5703 20.0078 12.7891L20.9844 12.9844C20.75 13.974 20.5938 14.8854 20.5156 15.7188C20.4375 16.5521 20.3854 17.3724 20.3594 18.1797C20.3594 18.987 20.3854 19.8073 20.4375 20.6406C20.4896 21.4479 20.5417 22.3073 20.5938 23.2188L19.7734 23.0625C19.7214 21.9688 19.474 21.1484 19.0312 20.6016C18.5885 20.0286 18.0417 19.651 17.3906 19.4688C16.7396 19.2604 16.0365 19.1953 15.2812 19.2734C14.526 19.3516 13.7969 19.4688 13.0938 19.625C13.1198 20.901 13.1719 22.2161 13.25 23.5703C13.3281 24.8984 13.4453 26.3958 13.6016 28.0625C13.6797 29.0521 13.8229 29.8724 14.0312 30.5234C14.2656 31.1745 14.5391 31.7083 14.8516 32.125C15.1641 32.5156 15.5026 32.8151 15.8672 33.0234C16.2578 33.2057 16.6484 33.349 17.0391 33.4531V34.3125C16.6745 34.2604 16.0625 34.2083 15.2031 34.1562C14.3698 34.1042 13.4583 34.0911 12.4688 34.1172C11.4792 34.1432 10.4766 34.2214 9.46094 34.3516C8.47135 34.4818 7.625 34.7031 6.92188 35.0156L6.64844 34.1953C7.29948 33.9089 7.85938 33.6094 8.32812 33.2969C8.79688 32.9583 9.1875 32.5677 9.5 32.125C9.8125 31.6562 10.0339 31.1094 10.1641 30.4844C10.3203 29.8333 10.3984 29.0521 10.3984 28.1406C10.3984 27.5417 10.3854 26.7734 10.3594 25.8359C10.3333 24.8984 10.2943 23.8828 10.2422 22.7891C10.2161 21.6953 10.1771 20.5625 10.125 19.3906C10.0729 18.2188 10.0208 17.099 9.96875 16.0312C9.91667 14.9375 9.86458 13.9349 9.8125 13.0234C9.78646 12.112 9.76042 11.3698 9.73438 10.7969ZM42.3906 17.1641C42.3646 17.6068 42.3125 17.9844 42.2344 18.2969C42.1823 18.6094 42.1432 18.8958 42.1172 19.1562C42.0911 19.3906 42.1042 19.612 42.1562 19.8203C42.2083 20.0286 42.3516 20.263 42.5859 20.5234C41.8828 20.3151 41.2448 20.1719 40.6719 20.0938C40.099 19.9896 39.5911 19.9115 39.1484 19.8594C38.6536 19.8333 38.2109 19.8333 37.8203 19.8594C38.0807 19.4948 38.25 19.0911 38.3281 18.6484C38.4323 18.2057 38.5104 17.6589 38.5625 17.0078C38.5885 16.5391 38.5625 16.0573 38.4844 15.5625C38.4062 15.0677 38.1458 14.7552 37.7031 14.625C37.5208 14.599 37.3255 14.5859 37.1172 14.5859C36.9089 14.5859 36.6745 14.651 36.4141 14.7812C36.1536 14.8854 35.8542 15.0677 35.5156 15.3281C35.1771 15.5885 34.7995 15.9661 34.3828 16.4609C33.7839 17.1641 33.25 17.9193 32.7812 18.7266C32.3125 19.5078 31.9089 20.2891 31.5703 21.0703C31.2318 21.8516 30.9583 22.5938 30.75 23.2969C30.5677 23.974 30.4635 24.5599 30.4375 25.0547C30.4375 25.1328 30.4245 25.1849 30.3984 25.2109C30.4505 26.2266 30.5156 27.1771 30.5938 28.0625C30.6719 28.9479 30.75 29.7031 30.8281 30.3281C30.9062 30.9271 31.0104 31.4219 31.1406 31.8125C31.2969 32.2031 31.4661 32.5286 31.6484 32.7891C31.8307 33.0234 32.026 33.2188 32.2344 33.375C32.4427 33.5312 32.638 33.6745 32.8203 33.8047L32.8984 34.625C32.5339 34.4688 32.013 34.3516 31.3359 34.2734C30.6589 34.2214 29.9297 34.2214 29.1484 34.2734C28.3932 34.3255 27.625 34.4427 26.8438 34.625C26.0625 34.8073 25.3984 35.0547 24.8516 35.3672L24.7344 34.4688C25.4635 34.1823 26.1276 33.6484 26.7266 32.8672C27.3516 32.0599 27.7422 30.8099 27.8984 29.1172C27.9766 28.2839 28.0547 27.4245 28.1328 26.5391C28.237 25.6536 28.3021 24.7552 28.3281 23.8438C28.3542 22.9323 28.3411 21.9948 28.2891 21.0312C28.237 20.0677 28.0938 19.0781 27.8594 18.0625C27.651 17.3333 27.4167 16.6562 27.1562 16.0312C26.9479 15.5104 26.6745 15.0286 26.3359 14.5859C26.0234 14.1172 25.6719 13.8307 25.2812 13.7266L25.2031 12.8281C25.5156 12.8802 25.9062 12.9323 26.375 12.9844C26.8698 13.0365 27.3906 13.0885 27.9375 13.1406C28.4844 13.1667 29.0443 13.1797 29.6172 13.1797C30.1901 13.1797 30.737 13.1536 31.2578 13.1016C31.1536 13.5703 31.0104 14.4427 30.8281 15.7188C30.6719 16.9948 30.5417 18.4271 30.4375 20.0156C30.776 19.2344 31.2188 18.362 31.7656 17.3984C32.3125 16.4349 32.9505 15.5495 33.6797 14.7422C34.4089 13.9349 35.2292 13.2839 36.1406 12.7891C37.0521 12.2682 38.0547 12.0599 39.1484 12.1641C39.7995 12.2422 40.3333 12.4635 40.75 12.8281C41.1927 13.1927 41.5312 13.6224 41.7656 14.1172C42.026 14.612 42.1953 15.1328 42.2734 15.6797C42.3776 16.2266 42.4167 16.7214 42.3906 17.1641ZM51.8047 12.2422C52.8984 12.2161 53.9792 12.4375 55.0469 12.9062C56.1146 13.375 57.0781 14.0781 57.9375 15.0156C58.7969 15.9531 59.487 17.099 60.0078 18.4531C60.5547 19.7812 60.8281 21.3047 60.8281 23.0234C60.8281 24.7422 60.6068 26.2656 60.1641 27.5938C59.7474 28.8958 59.1745 30.0026 58.4453 30.9141C57.7422 31.8255 56.9219 32.5286 55.9844 33.0234C55.0729 33.4922 54.1094 33.7656 53.0938 33.8438C51.9479 33.9219 50.8281 33.7396 49.7344 33.2969C48.6406 32.8281 47.651 32.138 46.7656 31.2266C45.9062 30.2891 45.2031 29.1432 44.6562 27.7891C44.1094 26.4089 43.8229 24.8333 43.7969 23.0625C43.7448 21.2396 43.9661 19.6641 44.4609 18.3359C44.9818 16.9818 45.6328 15.862 46.4141 14.9766C47.1953 14.0911 48.0677 13.4271 49.0312 12.9844C49.9948 12.5417 50.9193 12.2943 51.8047 12.2422ZM53.4453 31.2656C53.9922 31.2135 54.5781 30.9792 55.2031 30.5625C55.8281 30.1458 56.375 29.5339 56.8438 28.7266C57.3125 27.8932 57.651 26.8776 57.8594 25.6797C58.0938 24.4557 58.0807 23.0234 57.8203 21.3828C57.5599 19.7422 57.1693 18.4141 56.6484 17.3984C56.1276 16.3828 55.5547 15.6016 54.9297 15.0547C54.3307 14.4818 53.7188 14.1172 53.0938 13.9609C52.4688 13.7786 51.9219 13.7005 51.4531 13.7266C50.6979 13.7786 50.0599 14.0391 49.5391 14.5078C49.0182 14.9505 48.5755 15.5365 48.2109 16.2656C47.8724 16.9688 47.612 17.776 47.4297 18.6875C47.2734 19.599 47.1823 20.5495 47.1562 21.5391C47.1042 22.7891 47.1953 24.0391 47.4297 25.2891C47.6641 26.5391 48.0677 27.6589 48.6406 28.6484C49.1875 29.612 49.8776 30.3151 50.7109 30.7578C51.5443 31.2005 52.4557 31.3698 53.4453 31.2656ZM67.7812 19.2734C68.0938 18.3099 68.5365 17.3464 69.1094 16.3828C69.6823 15.4193 70.3333 14.5599 71.0625 13.8047C71.8177 13.0234 72.625 12.4115 73.4844 11.9688C74.3698 11.526 75.2812 11.3307 76.2188 11.3828C77.0781 11.4609 77.7812 11.8385 78.3281 12.5156C78.901 13.1927 79.3568 14 79.6953 14.9375C80.0339 15.849 80.2552 16.7995 80.3594 17.7891C80.4896 18.7526 80.5417 19.5599 80.5156 20.2109C80.4635 21.0182 80.2943 21.7995 80.0078 22.5547C79.7474 23.2839 79.4479 24.026 79.1094 24.7812C78.7969 25.5104 78.4974 26.2656 78.2109 27.0469C77.9245 27.8281 77.7552 28.6484 77.7031 29.5078C77.651 30.3672 77.7422 31.1875 77.9766 31.9688C78.237 32.724 78.6016 33.3099 79.0703 33.7266C79.5391 34.1432 80.0859 34.3125 80.7109 34.2344C81.362 34.1823 82.026 33.7396 82.7031 32.9062L83.2109 33.3359C82.9505 33.7786 82.5208 34.2083 81.9219 34.625C81.3229 35.0677 80.6198 35.2891 79.8125 35.2891C79.2656 35.2891 78.7188 35.1719 78.1719 34.9375C77.651 34.7292 77.1693 34.3906 76.7266 33.9219C76.3099 33.4271 75.9583 32.8021 75.6719 32.0469C75.4115 31.2917 75.2682 30.3672 75.2422 29.2734C75.2422 28.362 75.3594 27.5156 75.5938 26.7344C75.8281 25.9531 76.0755 25.1719 76.3359 24.3906C76.6224 23.6094 76.8698 22.8021 77.0781 21.9688C77.3125 21.1094 77.4167 20.1589 77.3906 19.1172C77.3385 18.1536 77.1823 17.3724 76.9219 16.7734C76.6875 16.1484 76.388 15.6797 76.0234 15.3672C75.6849 15.0286 75.3073 14.8203 74.8906 14.7422C74.5 14.638 74.1354 14.612 73.7969 14.6641C73.0938 14.7943 72.3776 15.1979 71.6484 15.875C70.9193 16.526 70.2552 17.3594 69.6562 18.375C69.0833 19.3646 68.6146 20.4974 68.25 21.7734C67.8854 23.0495 67.6901 24.3516 67.6641 25.6797V25.6016C67.6641 26.2526 67.651 26.8255 67.625 27.3203C67.599 27.8151 67.612 28.2318 67.6641 28.5703C67.6641 29.3255 67.7292 29.9245 67.8594 30.3672C68.0156 30.7839 68.1849 31.1094 68.3672 31.3438C68.5495 31.5781 68.7448 31.7474 68.9531 31.8516C69.1875 31.9297 69.3828 31.9818 69.5391 32.0078L69.5 32.7109C69.1354 32.6328 68.6667 32.5938 68.0938 32.5938C67.5469 32.5677 66.9479 32.5938 66.2969 32.6719C65.6458 32.75 64.9688 32.8932 64.2656 33.1016C63.5885 33.3099 62.9635 33.5964 62.3906 33.9609L62.1172 33.4141C62.5078 33.1016 62.8464 32.8281 63.1328 32.5938C63.4453 32.3333 63.7057 32.0078 63.9141 31.6172C64.1484 31.2266 64.3438 30.7188 64.5 30.0938C64.6562 29.4688 64.7734 28.6484 64.8516 27.6328C65.0078 25.5755 65.112 23.5573 65.1641 21.5781C65.2161 19.5729 65.1641 17.7109 65.0078 15.9922C64.9557 15.4453 64.8125 15.0286 64.5781 14.7422C64.3698 14.4557 64.1094 14.2604 63.7969 14.1562C63.4844 14.026 63.1589 13.9609 62.8203 13.9609C62.4818 13.9609 62.1562 13.974 61.8438 14L61.8047 13.3359C62.3776 13.2839 62.9635 13.2188 63.5625 13.1406C64.1875 13.0625 64.7865 12.9844 65.3594 12.9062C65.9323 12.8281 66.4401 12.75 66.8828 12.6719C67.3516 12.5677 67.7161 12.4505 67.9766 12.3203C67.9245 13.1536 67.8854 13.987 67.8594 14.8203C67.8594 15.6276 67.8464 16.3698 67.8203 17.0469C67.7943 17.8281 67.7812 18.5703 67.7812 19.2734ZM91.8828 32.7109C92.4818 32.7109 93.0417 32.5026 93.5625 32.0859C94.0833 31.6693 94.4479 30.9661 94.6562 29.9766L95.4766 30.2891C95.3984 30.9141 95.151 31.5521 94.7344 32.2031C94.3177 32.8281 93.7839 33.362 93.1328 33.8047C92.4818 34.2474 91.7396 34.5339 90.9062 34.6641C90.099 34.7943 89.2656 34.6641 88.4062 34.2734C87.4688 33.8307 86.7917 33.2578 86.375 32.5547C85.9583 31.8516 85.6979 31.0443 85.5938 30.1328C85.4896 29.1953 85.4766 28.1927 85.5547 27.125C85.6328 26.0312 85.6719 24.8984 85.6719 23.7266C85.6719 23.0495 85.6589 22.2552 85.6328 21.3438C85.6328 20.4062 85.6068 19.4167 85.5547 18.375C85.5286 17.3333 85.4766 16.2656 85.3984 15.1719C85.3203 14.0521 85.2422 12.9583 85.1641 11.8906C84.2786 11.9948 83.4323 12.125 82.625 12.2812C81.8438 12.4115 81.1797 12.5807 80.6328 12.7891C80.6068 12.5547 80.6068 12.3724 80.6328 12.2422C80.6328 12.112 80.6458 11.9948 80.6719 11.8906C80.6719 11.7604 80.6719 11.6302 80.6719 11.5C80.6719 11.3438 80.6458 11.1354 80.5938 10.875C81.2188 10.8229 81.9089 10.7708 82.6641 10.7188C83.4453 10.6667 84.2396 10.6146 85.0469 10.5625C85.0208 10.1979 84.9948 9.84635 84.9688 9.50781C84.9427 9.14323 84.9036 8.79167 84.8516 8.45312C84.7214 7.22917 84.474 6.2526 84.1094 5.52344C83.7708 4.79427 83.3932 4.23438 82.9766 3.84375C82.5599 3.45312 82.1693 3.19271 81.8047 3.0625C81.4401 2.90625 81.1667 2.80208 80.9844 2.75L81.1016 2.00781C81.5964 2.21615 82.2083 2.35938 82.9375 2.4375C83.6667 2.48958 84.4219 2.48958 85.2031 2.4375C86.0104 2.35938 86.7917 2.22917 87.5469 2.04688C88.3281 1.86458 89.0052 1.63021 89.5781 1.34375C89.3177 2.07292 89.0833 3.23177 88.875 4.82031C88.6927 6.40885 88.5365 8.25781 88.4062 10.3672C89.7604 10.2891 90.737 10.1849 91.3359 10.0547C91.2057 10.2109 91.1406 10.4714 91.1406 10.8359C91.1406 11.1745 91.1797 11.487 91.2578 11.7734C90.8151 11.7214 90.3464 11.6953 89.8516 11.6953C89.3568 11.6693 88.849 11.6562 88.3281 11.6562C88.25 13.1667 88.1979 14.7422 88.1719 16.3828C88.1458 18.0234 88.1589 19.651 88.2109 21.2656C88.2891 22.8542 88.3932 24.4167 88.5234 25.9531C88.6797 27.4635 88.875 28.8568 89.1094 30.1328C89.3177 31.0443 89.6823 31.6953 90.2031 32.0859C90.724 32.4766 91.2839 32.6849 91.8828 32.7109ZM95.125 23.4141C95.2031 21.8776 95.5286 20.4453 96.1016 19.1172C96.7005 17.7891 97.4688 16.6562 98.4062 15.7188C99.3438 14.7552 100.398 14.026 101.57 13.5312C102.768 13.0365 104.005 12.8672 105.281 13.0234C106.557 13.1797 107.534 13.5703 108.211 14.1953C108.914 14.8203 109.409 15.5234 109.695 16.3047C109.982 17.0599 110.138 17.8151 110.164 18.5703C110.19 19.3255 110.19 19.9115 110.164 20.3281C110.138 20.7188 110.086 21.1484 110.008 21.6172C109.956 22.0859 109.891 22.5547 109.812 23.0234C109.76 23.4661 109.734 23.8958 109.734 24.3125C109.734 24.7031 109.773 25.0286 109.852 25.2891C109.201 25.0807 108.445 24.8594 107.586 24.625C106.727 24.3646 105.789 24.1693 104.773 24.0391C103.784 23.9089 102.742 23.8698 101.648 23.9219C100.581 23.9479 99.513 24.1302 98.4453 24.4688C98.4193 25.4583 98.4844 26.4479 98.6406 27.4375C98.8229 28.401 99.1094 29.3255 99.5 30.2109C99.8385 30.9661 100.229 31.6302 100.672 32.2031C101.115 32.776 101.583 33.2188 102.078 33.5312C102.599 33.8177 103.12 33.974 103.641 34C104.188 34.026 104.734 33.8698 105.281 33.5312C105.724 33.2188 106.062 32.8411 106.297 32.3984C106.505 32.0339 106.583 31.5911 106.531 31.0703C106.505 30.5495 106.232 29.9505 105.711 29.2734L110.594 29.0391C110.411 29.5599 110.138 30.2109 109.773 30.9922C109.435 31.7734 108.966 32.5286 108.367 33.2578C107.768 33.987 107.026 34.599 106.141 35.0938C105.255 35.5885 104.188 35.8099 102.938 35.7578C101.688 35.6797 100.555 35.276 99.5391 34.5469C98.5495 33.8438 97.7161 32.9193 97.0391 31.7734C96.362 30.6276 95.8542 29.3385 95.5156 27.9062C95.1771 26.4479 95.0469 24.9505 95.125 23.4141ZM104.812 14.0391C104.083 13.9609 103.367 14.1432 102.664 14.5859C101.987 15.0286 101.362 15.6667 100.789 16.5C100.242 17.3073 99.7734 18.2708 99.3828 19.3906C98.9922 20.5104 98.7188 21.6823 98.5625 22.9062C100.047 22.724 101.427 22.6328 102.703 22.6328C103.979 22.6068 105.164 22.6849 106.258 22.8672C106.544 22.2682 106.805 21.5 107.039 20.5625C107.273 19.599 107.378 18.6615 107.352 17.75C107.326 16.8125 107.117 15.9922 106.727 15.2891C106.362 14.5859 105.724 14.1693 104.812 14.0391ZM118.367 19.2734C118.68 18.3099 119.122 17.3464 119.695 16.3828C120.268 15.4193 120.919 14.5599 121.648 13.8047C122.404 13.0234 123.211 12.4115 124.07 11.9688C124.956 11.526 125.867 11.3307 126.805 11.3828C127.664 11.4609 128.367 11.8385 128.914 12.5156C129.487 13.1927 129.943 14 130.281 14.9375C130.62 15.849 130.841 16.7995 130.945 17.7891C131.076 18.7526 131.128 19.5599 131.102 20.2109C131.049 21.0182 130.88 21.7995 130.594 22.5547C130.333 23.2839 130.034 24.026 129.695 24.7812C129.383 25.5104 129.083 26.2656 128.797 27.0469C128.51 27.8281 128.341 28.6484 128.289 29.5078C128.237 30.3672 128.328 31.1875 128.562 31.9688C128.823 32.724 129.188 33.3099 129.656 33.7266C130.125 34.1432 130.672 34.3125 131.297 34.2344C131.948 34.1823 132.612 33.7396 133.289 32.9062L133.797 33.3359C133.536 33.7786 133.107 34.2083 132.508 34.625C131.909 35.0677 131.206 35.2891 130.398 35.2891C129.852 35.2891 129.305 35.1719 128.758 34.9375C128.237 34.7292 127.755 34.3906 127.312 33.9219C126.896 33.4271 126.544 32.8021 126.258 32.0469C125.997 31.2917 125.854 30.3672 125.828 29.2734C125.828 28.362 125.945 27.5156 126.18 26.7344C126.414 25.9531 126.661 25.1719 126.922 24.3906C127.208 23.6094 127.456 22.8021 127.664 21.9688C127.898 21.1094 128.003 20.1589 127.977 19.1172C127.924 18.1536 127.768 17.3724 127.508 16.7734C127.273 16.1484 126.974 15.6797 126.609 15.3672C126.271 15.0286 125.893 14.8203 125.477 14.7422C125.086 14.638 124.721 14.612 124.383 14.6641C123.68 14.7943 122.964 15.1979 122.234 15.875C121.505 16.526 120.841 17.3594 120.242 18.375C119.669 19.3646 119.201 20.4974 118.836 21.7734C118.471 23.0495 118.276 24.3516 118.25 25.6797V25.6016C118.25 26.2526 118.237 26.8255 118.211 27.3203C118.185 27.8151 118.198 28.2318 118.25 28.5703C118.25 29.3255 118.315 29.9245 118.445 30.3672C118.602 30.7839 118.771 31.1094 118.953 31.3438C119.135 31.5781 119.331 31.7474 119.539 31.8516C119.773 31.9297 119.969 31.9818 120.125 32.0078L120.086 32.7109C119.721 32.6328 119.253 32.5938 118.68 32.5938C118.133 32.5677 117.534 32.5938 116.883 32.6719C116.232 32.75 115.555 32.8932 114.852 33.1016C114.174 33.3099 113.549 33.5964 112.977 33.9609L112.703 33.4141C113.094 33.1016 113.432 32.8281 113.719 32.5938C114.031 32.3333 114.292 32.0078 114.5 31.6172C114.734 31.2266 114.93 30.7188 115.086 30.0938C115.242 29.4688 115.359 28.6484 115.438 27.6328C115.594 25.5755 115.698 23.5573 115.75 21.5781C115.802 19.5729 115.75 17.7109 115.594 15.9922C115.542 15.4453 115.398 15.0286 115.164 14.7422C114.956 14.4557 114.695 14.2604 114.383 14.1562C114.07 14.026 113.745 13.9609 113.406 13.9609C113.068 13.9609 112.742 13.974 112.43 14L112.391 13.3359C112.964 13.2839 113.549 13.2188 114.148 13.1406C114.773 13.0625 115.372 12.9844 115.945 12.9062C116.518 12.8281 117.026 12.75 117.469 12.6719C117.938 12.5677 118.302 12.4505 118.562 12.3203C118.51 13.1536 118.471 13.987 118.445 14.8203C118.445 15.6276 118.432 16.3698 118.406 17.0469C118.38 17.8281 118.367 18.5703 118.367 19.2734ZM134.227 21.6562C134.279 20.4062 134.526 19.1693 134.969 17.9453C135.438 16.6953 136.049 15.5885 136.805 14.625C137.56 13.6354 138.432 12.8542 139.422 12.2812C140.411 11.7083 141.466 11.4609 142.586 11.5391C143.445 11.5911 144.188 11.8125 144.812 12.2031C145.438 12.5677 145.971 13.0495 146.414 13.6484C146.883 14.2214 147.273 14.8854 147.586 15.6406C147.898 16.3698 148.159 17.125 148.367 17.9062C148.315 16.3177 148.237 14.7031 148.133 13.0625C148.029 11.4219 147.872 9.88542 147.664 8.45312C147.534 7.51562 147.378 6.59115 147.195 5.67969C147.039 4.89844 146.844 4.09115 146.609 3.25781C146.401 2.39844 146.154 1.63021 145.867 0.953125C147.013 1.13542 148.263 1.29167 149.617 1.42188C150.997 1.52604 152.534 1.31771 154.227 0.796875V1.57812C153.836 1.68229 153.432 1.79948 153.016 1.92969C152.599 2.03385 152.221 2.22917 151.883 2.51562C151.57 2.80208 151.297 3.21875 151.062 3.76562C150.854 4.28646 150.737 5.0026 150.711 5.91406C150.685 6.53906 150.672 7.33333 150.672 8.29688C150.672 9.23438 150.672 10.2891 150.672 11.4609C150.672 12.6068 150.672 13.8177 150.672 15.0938C150.698 16.3438 150.724 17.5807 150.75 18.8047C150.776 20.0026 150.802 21.1484 150.828 22.2422C150.88 23.3099 150.932 24.2474 150.984 25.0547C151.062 26.2526 151.219 27.2292 151.453 27.9844C151.688 28.7396 151.987 29.3516 152.352 29.8203C152.716 30.263 153.133 30.6146 153.602 30.875C154.07 31.1354 154.578 31.3568 155.125 31.5391L154.93 32.2422C154.487 32.1641 153.953 32.0859 153.328 32.0078C152.703 31.9297 152.039 31.8906 151.336 31.8906C150.633 31.8906 149.904 31.9297 149.148 32.0078C148.393 32.0859 147.69 32.2292 147.039 32.4375C147.247 31.474 147.456 30.5365 147.664 29.625C147.872 28.7135 148.042 27.6589 148.172 26.4609C147.885 27.0859 147.495 27.763 147 28.4922C146.531 29.2214 145.958 29.8984 145.281 30.5234C144.63 31.1484 143.875 31.6562 143.016 32.0469C142.156 32.4375 141.219 32.5938 140.203 32.5156C138.979 32.4375 137.964 32.0599 137.156 31.3828C136.375 30.7057 135.75 29.8594 135.281 28.8438C134.839 27.8021 134.539 26.6562 134.383 25.4062C134.227 24.1562 134.174 22.9062 134.227 21.6562ZM143.25 13.1016C142.495 13.0755 141.779 13.2839 141.102 13.7266C140.451 14.1693 139.865 14.7943 139.344 15.6016C138.823 16.3828 138.393 17.3203 138.055 18.4141C137.742 19.4818 137.547 20.6406 137.469 21.8906C137.391 23.1927 137.43 24.2865 137.586 25.1719C137.742 26.0573 137.99 26.7865 138.328 27.3594C138.693 27.9323 139.135 28.362 139.656 28.6484C140.203 28.9349 140.789 29.1042 141.414 29.1562C142.456 29.2604 143.38 29.1172 144.188 28.7266C144.995 28.3359 145.672 27.8151 146.219 27.1641C146.766 26.513 147.182 25.8099 147.469 25.0547C147.781 24.2734 147.951 23.5443 147.977 22.8672C148.003 22.2161 147.911 21.3568 147.703 20.2891C147.495 19.1953 147.182 18.1276 146.766 17.0859C146.375 16.0182 145.88 15.0938 145.281 14.3125C144.682 13.5312 144.005 13.1276 143.25 13.1016ZM167.117 17.5156C166.518 17.5417 165.945 17.4505 165.398 17.2422C164.852 17.0078 164.383 16.6823 163.992 16.2656C163.576 15.849 163.263 15.3411 163.055 14.7422C162.82 14.1172 162.703 13.4271 162.703 12.6719C162.703 11.7083 163.003 10.7839 163.602 9.89844C164.201 8.98698 165.034 8.19271 166.102 7.51562C167.169 6.8125 168.458 6.26562 169.969 5.875C171.505 5.45833 173.198 5.25 175.047 5.25C176.661 5.25 178.302 5.44531 179.969 5.83594C181.635 6.22656 183.159 6.95573 184.539 8.02344C185.919 9.0651 187.052 10.5234 187.938 12.3984C188.823 14.2734 189.292 16.6953 189.344 19.6641C189.37 22.6589 188.914 25.3151 187.977 27.6328C187.039 29.9505 185.672 31.8516 183.875 33.3359C182.078 34.8203 179.904 35.8359 177.352 36.3828C174.799 36.9557 171.935 36.9688 168.758 36.4219V35.4062C169.201 35.4844 169.617 35.5234 170.008 35.5234C170.424 35.5234 170.789 35.4062 171.102 35.1719C171.414 34.9375 171.661 34.5469 171.844 34C172.052 33.4792 172.169 32.737 172.195 31.7734C172.221 31.2005 172.247 30.3281 172.273 29.1562C172.326 27.9583 172.365 26.6172 172.391 25.1328C172.443 23.6224 172.482 22.0208 172.508 20.3281C172.534 18.6354 172.521 16.9948 172.469 15.4062C172.443 13.7917 172.391 12.2943 172.312 10.9141C172.234 9.53385 172.104 8.40104 171.922 7.51562C171.193 7.48958 170.359 7.58073 169.422 7.78906C168.51 7.97135 167.638 8.29688 166.805 8.76562C165.997 9.23438 165.32 9.83333 164.773 10.5625C164.201 11.2917 163.914 12.151 163.914 13.1406C163.914 13.6615 164.018 14.1302 164.227 14.5469C164.409 14.9375 164.669 15.276 165.008 15.5625C165.346 15.8229 165.724 16.0312 166.141 16.1875C166.531 16.3177 166.935 16.3698 167.352 16.3438C168.107 16.2917 168.706 16.0052 169.148 15.4844C169.617 14.9635 169.826 14.3646 169.773 13.6875C169.747 13.349 169.656 13.0104 169.5 12.6719C169.344 12.3333 169.148 12.0469 168.914 11.8125C168.68 11.5521 168.406 11.3698 168.094 11.2656C167.807 11.1354 167.495 11.1094 167.156 11.1875C166.635 11.3177 166.336 11.5781 166.258 11.9688C166.154 12.3333 166.128 12.6589 166.18 12.9453C166.232 13.2578 166.388 13.5052 166.648 13.6875C166.909 13.8698 167.208 13.8958 167.547 13.7656C167.208 13.6354 167.026 13.401 167 13.0625C166.974 12.6979 167.091 12.4635 167.352 12.3594C167.716 12.2292 168.016 12.2682 168.25 12.4766C168.484 12.6849 168.602 12.9453 168.602 13.2578C168.628 13.5703 168.51 13.8698 168.25 14.1562C167.99 14.4427 167.547 14.612 166.922 14.6641C166.479 14.7161 166.115 14.5469 165.828 14.1562C165.516 13.7656 165.346 13.2969 165.32 12.75C165.294 12.2292 165.464 11.7214 165.828 11.2266C166.167 10.7318 166.688 10.4453 167.391 10.3672C167.755 10.3411 168.12 10.4062 168.484 10.5625C168.875 10.6927 169.227 10.9141 169.539 11.2266C169.852 11.513 170.112 11.8646 170.32 12.2812C170.529 12.6979 170.659 13.1406 170.711 13.6094C170.763 14.0781 170.724 14.5469 170.594 15.0156C170.464 15.4583 170.242 15.862 169.93 16.2266C169.617 16.5911 169.227 16.8906 168.758 17.125C168.289 17.3594 167.742 17.4896 167.117 17.5156ZM175.789 7.08594C175.659 8.17969 175.542 9.58594 175.438 11.3047C175.359 13.0234 175.307 14.8333 175.281 16.7344C175.255 18.6094 175.242 20.4714 175.242 22.3203C175.268 24.1693 175.307 25.7578 175.359 27.0859C175.385 28.1536 175.424 29.0911 175.477 29.8984C175.529 30.6797 175.594 31.3568 175.672 31.9297C175.75 32.5026 175.841 32.9844 175.945 33.375C176.049 33.7396 176.193 34.0391 176.375 34.2734C177.964 33.9349 179.409 33.2839 180.711 32.3203C182.013 31.3307 183.107 30.0938 183.992 28.6094C184.878 27.099 185.516 25.3542 185.906 23.375C186.323 21.3958 186.44 19.2474 186.258 16.9297C186.076 14.7422 185.607 12.9974 184.852 11.6953C184.096 10.3932 183.198 9.39062 182.156 8.6875C181.141 7.98438 180.06 7.54167 178.914 7.35938C177.768 7.15104 176.727 7.0599 175.789 7.08594ZM192.391 23.4141C192.469 21.8776 192.794 20.4453 193.367 19.1172C193.966 17.7891 194.734 16.6562 195.672 15.7188C196.609 14.7552 197.664 14.026 198.836 13.5312C200.034 13.0365 201.271 12.8672 202.547 13.0234C203.823 13.1797 204.799 13.5703 205.477 14.1953C206.18 14.8203 206.674 15.5234 206.961 16.3047C207.247 17.0599 207.404 17.8151 207.43 18.5703C207.456 19.3255 207.456 19.9115 207.43 20.3281C207.404 20.7188 207.352 21.1484 207.273 21.6172C207.221 22.0859 207.156 22.5547 207.078 23.0234C207.026 23.4661 207 23.8958 207 24.3125C207 24.7031 207.039 25.0286 207.117 25.2891C206.466 25.0807 205.711 24.8594 204.852 24.625C203.992 24.3646 203.055 24.1693 202.039 24.0391C201.049 23.9089 200.008 23.8698 198.914 23.9219C197.846 23.9479 196.779 24.1302 195.711 24.4688C195.685 25.4583 195.75 26.4479 195.906 27.4375C196.089 28.401 196.375 29.3255 196.766 30.2109C197.104 30.9661 197.495 31.6302 197.938 32.2031C198.38 32.776 198.849 33.2188 199.344 33.5312C199.865 33.8177 200.385 33.974 200.906 34C201.453 34.026 202 33.8698 202.547 33.5312C202.99 33.2188 203.328 32.8411 203.562 32.3984C203.771 32.0339 203.849 31.5911 203.797 31.0703C203.771 30.5495 203.497 29.9505 202.977 29.2734L207.859 29.0391C207.677 29.5599 207.404 30.2109 207.039 30.9922C206.701 31.7734 206.232 32.5286 205.633 33.2578C205.034 33.987 204.292 34.599 203.406 35.0938C202.521 35.5885 201.453 35.8099 200.203 35.7578C198.953 35.6797 197.82 35.276 196.805 34.5469C195.815 33.8438 194.982 32.9193 194.305 31.7734C193.628 30.6276 193.12 29.3385 192.781 27.9062C192.443 26.4479 192.312 24.9505 192.391 23.4141ZM202.078 14.0391C201.349 13.9609 200.633 14.1432 199.93 14.5859C199.253 15.0286 198.628 15.6667 198.055 16.5C197.508 17.3073 197.039 18.2708 196.648 19.3906C196.258 20.5104 195.984 21.6823 195.828 22.9062C197.312 22.724 198.693 22.6328 199.969 22.6328C201.245 22.6068 202.43 22.6849 203.523 22.8672C203.81 22.2682 204.07 21.5 204.305 20.5625C204.539 19.599 204.643 18.6615 204.617 17.75C204.591 16.8125 204.383 15.9922 203.992 15.2891C203.628 14.5859 202.99 14.1693 202.078 14.0391ZM220.906 13.2969C221.844 13.401 223.029 13.5312 224.461 13.6875C225.893 13.8177 227.521 13.7786 229.344 13.5703L229.305 14.0391C229.018 14.1172 228.706 14.2214 228.367 14.3516C228.029 14.4818 227.69 14.6641 227.352 14.8984C227.039 15.1328 226.74 15.4453 226.453 15.8359C226.167 16.2005 225.932 16.6823 225.75 17.2812C225.49 17.9844 225.112 19.0911 224.617 20.6016C224.174 21.9036 223.562 23.6875 222.781 25.9531C222.026 28.2188 221.023 31.1615 219.773 34.7812C219.305 34.7292 218.875 34.6901 218.484 34.6641C218.12 34.6641 217.794 34.6641 217.508 34.6641C217.195 34.6641 216.896 34.6771 216.609 34.7031C215.698 31.1615 214.943 28.2969 214.344 26.1094C213.771 23.9219 213.315 22.2161 212.977 20.9922C212.56 19.5599 212.247 18.5182 212.039 17.8672C211.57 16.513 211.01 15.6016 210.359 15.1328C209.734 14.638 209.096 14.3516 208.445 14.2734L208.602 13.6094C209.044 13.6875 209.604 13.7526 210.281 13.8047C210.958 13.8568 211.674 13.8958 212.43 13.9219C213.185 13.9219 213.966 13.8958 214.773 13.8438C215.581 13.7917 216.349 13.6745 217.078 13.4922L217.312 14.1953C216.896 14.2214 216.492 14.3776 216.102 14.6641C215.711 14.9245 215.398 15.3411 215.164 15.9141C214.93 16.4609 214.799 17.1771 214.773 18.0625C214.773 18.9219 214.93 19.9505 215.242 21.1484C215.789 23.1276 216.388 25.0547 217.039 26.9297C217.716 28.8047 218.393 30.4193 219.07 31.7734C219.383 30.9922 219.747 29.9896 220.164 28.7656C220.607 27.5417 221.036 26.3047 221.453 25.0547C221.896 23.7786 222.286 22.5677 222.625 21.4219C222.964 20.25 223.185 19.3255 223.289 18.6484C223.419 17.8672 223.432 17.2031 223.328 16.6562C223.224 16.1094 223.055 15.6406 222.82 15.25C222.586 14.8594 222.286 14.5469 221.922 14.3125C221.583 14.0521 221.245 13.8438 220.906 13.6875V13.2969ZM228.602 23.4141C228.68 21.8776 229.005 20.4453 229.578 19.1172C230.177 17.7891 230.945 16.6562 231.883 15.7188C232.82 14.7552 233.875 14.026 235.047 13.5312C236.245 13.0365 237.482 12.8672 238.758 13.0234C240.034 13.1797 241.01 13.5703 241.688 14.1953C242.391 14.8203 242.885 15.5234 243.172 16.3047C243.458 17.0599 243.615 17.8151 243.641 18.5703C243.667 19.3255 243.667 19.9115 243.641 20.3281C243.615 20.7188 243.562 21.1484 243.484 21.6172C243.432 22.0859 243.367 22.5547 243.289 23.0234C243.237 23.4661 243.211 23.8958 243.211 24.3125C243.211 24.7031 243.25 25.0286 243.328 25.2891C242.677 25.0807 241.922 24.8594 241.062 24.625C240.203 24.3646 239.266 24.1693 238.25 24.0391C237.26 23.9089 236.219 23.8698 235.125 23.9219C234.057 23.9479 232.99 24.1302 231.922 24.4688C231.896 25.4583 231.961 26.4479 232.117 27.4375C232.299 28.401 232.586 29.3255 232.977 30.2109C233.315 30.9661 233.706 31.6302 234.148 32.2031C234.591 32.776 235.06 33.2188 235.555 33.5312C236.076 33.8177 236.596 33.974 237.117 34C237.664 34.026 238.211 33.8698 238.758 33.5312C239.201 33.2188 239.539 32.8411 239.773 32.3984C239.982 32.0339 240.06 31.5911 240.008 31.0703C239.982 30.5495 239.708 29.9505 239.188 29.2734L244.07 29.0391C243.888 29.5599 243.615 30.2109 243.25 30.9922C242.911 31.7734 242.443 32.5286 241.844 33.2578C241.245 33.987 240.503 34.599 239.617 35.0938C238.732 35.5885 237.664 35.8099 236.414 35.7578C235.164 35.6797 234.031 35.276 233.016 34.5469C232.026 33.8438 231.193 32.9193 230.516 31.7734C229.839 30.6276 229.331 29.3385 228.992 27.9062C228.654 26.4479 228.523 24.9505 228.602 23.4141ZM238.289 14.0391C237.56 13.9609 236.844 14.1432 236.141 14.5859C235.464 15.0286 234.839 15.6667 234.266 16.5C233.719 17.3073 233.25 18.2708 232.859 19.3906C232.469 20.5104 232.195 21.6823 232.039 22.9062C233.523 22.724 234.904 22.6328 236.18 22.6328C237.456 22.6068 238.641 22.6849 239.734 22.8672C240.021 22.2682 240.281 21.5 240.516 20.5625C240.75 19.599 240.854 18.6615 240.828 17.75C240.802 16.8125 240.594 15.9922 240.203 15.2891C239.839 14.5859 239.201 14.1693 238.289 14.0391ZM256.102 32.9844C255.372 32.8802 254.695 32.8151 254.07 32.7891C253.445 32.763 252.885 32.737 252.391 32.7109H250.789C250.216 32.737 249.656 32.763 249.109 32.7891C248.641 32.8151 248.146 32.8542 247.625 32.9062C247.13 32.9323 246.688 32.9714 246.297 33.0234L246.062 32.5156C246.661 32.3073 247.156 32.0469 247.547 31.7344C247.938 31.3958 248.237 31.0573 248.445 30.7188C248.706 30.3281 248.875 29.9245 248.953 29.5078C249.135 28.6224 249.279 27.5547 249.383 26.3047C249.513 25.0286 249.591 23.6615 249.617 22.2031C249.669 20.7188 249.682 19.2083 249.656 17.6719C249.63 16.1094 249.578 14.599 249.5 13.1406C249.422 11.6823 249.305 10.3411 249.148 9.11719C249.018 7.86719 248.862 6.82552 248.68 5.99219C248.523 5.47135 248.302 4.97656 248.016 4.50781C247.781 4.11719 247.456 3.7526 247.039 3.41406C246.648 3.04948 246.141 2.8151 245.516 2.71094L245.477 2.125C245.971 2.17708 246.44 2.21615 246.883 2.24219C247.326 2.24219 247.716 2.24219 248.055 2.24219H249.109C249.578 2.21615 250.034 2.17708 250.477 2.125C250.841 2.07292 251.232 2.02083 251.648 1.96875C252.065 1.91667 252.417 1.83854 252.703 1.73438C252.573 5.27604 252.469 8.23177 252.391 10.6016C252.339 12.9453 252.286 14.8333 252.234 16.2656C252.182 17.9323 252.143 19.2474 252.117 20.2109C252.091 21.1745 252.091 22.2161 252.117 23.3359C252.143 24.4557 252.195 25.5365 252.273 26.5781C252.378 27.5938 252.508 28.5052 252.664 29.3125C252.82 30.1198 253.016 30.6927 253.25 31.0312C253.38 31.2656 253.589 31.474 253.875 31.6562C254.083 31.8125 254.37 31.9557 254.734 32.0859C255.099 32.2161 255.542 32.3073 256.062 32.3594L256.102 32.9844ZM264.734 12.2422C265.828 12.2161 266.909 12.4375 267.977 12.9062C269.044 13.375 270.008 14.0781 270.867 15.0156C271.727 15.9531 272.417 17.099 272.938 18.4531C273.484 19.7812 273.758 21.3047 273.758 23.0234C273.758 24.7422 273.536 26.2656 273.094 27.5938C272.677 28.8958 272.104 30.0026 271.375 30.9141C270.672 31.8255 269.852 32.5286 268.914 33.0234C268.003 33.4922 267.039 33.7656 266.023 33.8438C264.878 33.9219 263.758 33.7396 262.664 33.2969C261.57 32.8281 260.581 32.138 259.695 31.2266C258.836 30.2891 258.133 29.1432 257.586 27.7891C257.039 26.4089 256.753 24.8333 256.727 23.0625C256.674 21.2396 256.896 19.6641 257.391 18.3359C257.911 16.9818 258.562 15.862 259.344 14.9766C260.125 14.0911 260.997 13.4271 261.961 12.9844C262.924 12.5417 263.849 12.2943 264.734 12.2422ZM266.375 31.2656C266.922 31.2135 267.508 30.9792 268.133 30.5625C268.758 30.1458 269.305 29.5339 269.773 28.7266C270.242 27.8932 270.581 26.8776 270.789 25.6797C271.023 24.4557 271.01 23.0234 270.75 21.3828C270.49 19.7422 270.099 18.4141 269.578 17.3984C269.057 16.3828 268.484 15.6016 267.859 15.0547C267.26 14.4818 266.648 14.1172 266.023 13.9609C265.398 13.7786 264.852 13.7005 264.383 13.7266C263.628 13.7786 262.99 14.0391 262.469 14.5078C261.948 14.9505 261.505 15.5365 261.141 16.2656C260.802 16.9688 260.542 17.776 260.359 18.6875C260.203 19.599 260.112 20.5495 260.086 21.5391C260.034 22.7891 260.125 24.0391 260.359 25.2891C260.594 26.5391 260.997 27.6589 261.57 28.6484C262.117 29.612 262.807 30.3151 263.641 30.7578C264.474 31.2005 265.385 31.3698 266.375 31.2656ZM287.039 11.7734C287.846 11.7474 288.667 11.9688 289.5 12.4375C290.333 12.8802 291.089 13.5833 291.766 14.5469C292.469 15.5104 293.029 16.7344 293.445 18.2188C293.888 19.6771 294.109 21.3958 294.109 23.375C294.109 25.3542 293.823 27.0859 293.25 28.5703C292.677 30.0547 291.948 31.2917 291.062 32.2812C290.203 33.2448 289.24 33.9609 288.172 34.4297C287.104 34.9245 286.076 35.1458 285.086 35.0938C284.07 35.0417 283.198 34.8073 282.469 34.3906C281.766 33.974 281.18 33.4531 280.711 32.8281C280.685 33.5312 280.659 34.3385 280.633 35.25C280.633 36.1875 280.62 37.112 280.594 38.0234C280.594 38.9349 280.594 39.7812 280.594 40.5625C280.62 41.3698 280.633 42.0208 280.633 42.5156C280.685 43.7135 281.036 44.612 281.688 45.2109C282.339 45.8359 283.224 46.2396 284.344 46.4219L284.031 47.1641C283.354 47.0599 282.521 46.9948 281.531 46.9688C280.542 46.9688 279.552 47.0078 278.562 47.0859C277.599 47.1901 276.701 47.3203 275.867 47.4766C275.034 47.6589 274.435 47.8672 274.07 48.1016L273.719 47.4375C274.24 47.099 274.708 46.7734 275.125 46.4609C275.542 46.1484 275.906 45.6797 276.219 45.0547C276.557 44.4557 276.831 43.6224 277.039 42.5547C277.273 41.487 277.456 40.0547 277.586 38.2578C277.69 36.4609 277.768 34.7031 277.82 32.9844C277.872 31.2396 277.898 29.599 277.898 28.0625C277.924 26.526 277.938 25.0938 277.938 23.7656C277.938 22.4115 277.951 21.2266 277.977 20.2109C278.003 19.1432 277.911 18.1536 277.703 17.2422C277.495 16.3047 277.182 15.4974 276.766 14.8203C276.349 14.1172 275.828 13.5703 275.203 13.1797C274.604 12.763 273.914 12.5286 273.133 12.4766L273.367 11.5391C274.253 11.6432 275.034 11.7214 275.711 11.7734C276.414 11.7995 277.052 11.8125 277.625 11.8125C278.198 11.7865 278.719 11.7474 279.188 11.6953C279.682 11.6172 280.151 11.513 280.594 11.3828C280.49 12.3724 280.411 13.3229 280.359 14.2344C280.307 15.1458 280.268 15.9792 280.242 16.7344C280.997 15.25 281.961 14.0781 283.133 13.2188C284.331 12.3333 285.633 11.8516 287.039 11.7734ZM291.297 22.7109C291.323 21.9036 291.232 20.9792 291.023 19.9375C290.815 18.8698 290.49 17.8672 290.047 16.9297C289.604 15.9922 289.031 15.224 288.328 14.625C287.625 14.026 286.792 13.7786 285.828 13.8828C284.839 14.013 284.005 14.4557 283.328 15.2109C282.677 15.9401 282.143 16.8125 281.727 17.8281C281.336 18.8438 281.049 19.9245 280.867 21.0703C280.685 22.2161 280.594 23.2318 280.594 24.1172C280.568 24.5859 280.594 25.2891 280.672 26.2266C280.75 27.138 280.932 28.0495 281.219 28.9609C281.505 29.8464 281.922 30.6276 282.469 31.3047C283.042 31.9818 283.797 32.3203 284.734 32.3203C285.516 32.3203 286.284 32.0859 287.039 31.6172C287.794 31.1224 288.471 30.4583 289.07 29.625C289.695 28.7656 290.203 27.75 290.594 26.5781C291.01 25.4062 291.245 24.1172 291.297 22.7109ZM296.727 23.4141C296.805 21.8776 297.13 20.4453 297.703 19.1172C298.302 17.7891 299.07 16.6562 300.008 15.7188C300.945 14.7552 302 14.026 303.172 13.5312C304.37 13.0365 305.607 12.8672 306.883 13.0234C308.159 13.1797 309.135 13.5703 309.812 14.1953C310.516 14.8203 311.01 15.5234 311.297 16.3047C311.583 17.0599 311.74 17.8151 311.766 18.5703C311.792 19.3255 311.792 19.9115 311.766 20.3281C311.74 20.7188 311.688 21.1484 311.609 21.6172C311.557 22.0859 311.492 22.5547 311.414 23.0234C311.362 23.4661 311.336 23.8958 311.336 24.3125C311.336 24.7031 311.375 25.0286 311.453 25.2891C310.802 25.0807 310.047 24.8594 309.188 24.625C308.328 24.3646 307.391 24.1693 306.375 24.0391C305.385 23.9089 304.344 23.8698 303.25 23.9219C302.182 23.9479 301.115 24.1302 300.047 24.4688C300.021 25.4583 300.086 26.4479 300.242 27.4375C300.424 28.401 300.711 29.3255 301.102 30.2109C301.44 30.9661 301.831 31.6302 302.273 32.2031C302.716 32.776 303.185 33.2188 303.68 33.5312C304.201 33.8177 304.721 33.974 305.242 34C305.789 34.026 306.336 33.8698 306.883 33.5312C307.326 33.2188 307.664 32.8411 307.898 32.3984C308.107 32.0339 308.185 31.5911 308.133 31.0703C308.107 30.5495 307.833 29.9505 307.312 29.2734L312.195 29.0391C312.013 29.5599 311.74 30.2109 311.375 30.9922C311.036 31.7734 310.568 32.5286 309.969 33.2578C309.37 33.987 308.628 34.599 307.742 35.0938C306.857 35.5885 305.789 35.8099 304.539 35.7578C303.289 35.6797 302.156 35.276 301.141 34.5469C300.151 33.8438 299.318 32.9193 298.641 31.7734C297.964 30.6276 297.456 29.3385 297.117 27.9062C296.779 26.4479 296.648 24.9505 296.727 23.4141ZM306.414 14.0391C305.685 13.9609 304.969 14.1432 304.266 14.5859C303.589 15.0286 302.964 15.6667 302.391 16.5C301.844 17.3073 301.375 18.2708 300.984 19.3906C300.594 20.5104 300.32 21.6823 300.164 22.9062C301.648 22.724 303.029 22.6328 304.305 22.6328C305.581 22.6068 306.766 22.6849 307.859 22.8672C308.146 22.2682 308.406 21.5 308.641 20.5625C308.875 19.599 308.979 18.6615 308.953 17.75C308.927 16.8125 308.719 15.9922 308.328 15.2891C307.964 14.5859 307.326 14.1693 306.414 14.0391ZM331.453 17.1641C331.427 17.6068 331.375 17.9844 331.297 18.2969C331.245 18.6094 331.206 18.8958 331.18 19.1562C331.154 19.3906 331.167 19.612 331.219 19.8203C331.271 20.0286 331.414 20.263 331.648 20.5234C330.945 20.3151 330.307 20.1719 329.734 20.0938C329.161 19.9896 328.654 19.9115 328.211 19.8594C327.716 19.8333 327.273 19.8333 326.883 19.8594C327.143 19.4948 327.312 19.0911 327.391 18.6484C327.495 18.2057 327.573 17.6589 327.625 17.0078C327.651 16.5391 327.625 16.0573 327.547 15.5625C327.469 15.0677 327.208 14.7552 326.766 14.625C326.583 14.599 326.388 14.5859 326.18 14.5859C325.971 14.5859 325.737 14.651 325.477 14.7812C325.216 14.8854 324.917 15.0677 324.578 15.3281C324.24 15.5885 323.862 15.9661 323.445 16.4609C322.846 17.1641 322.312 17.9193 321.844 18.7266C321.375 19.5078 320.971 20.2891 320.633 21.0703C320.294 21.8516 320.021 22.5938 319.812 23.2969C319.63 23.974 319.526 24.5599 319.5 25.0547C319.5 25.1328 319.487 25.1849 319.461 25.2109C319.513 26.2266 319.578 27.1771 319.656 28.0625C319.734 28.9479 319.812 29.7031 319.891 30.3281C319.969 30.9271 320.073 31.4219 320.203 31.8125C320.359 32.2031 320.529 32.5286 320.711 32.7891C320.893 33.0234 321.089 33.2188 321.297 33.375C321.505 33.5312 321.701 33.6745 321.883 33.8047L321.961 34.625C321.596 34.4688 321.076 34.3516 320.398 34.2734C319.721 34.2214 318.992 34.2214 318.211 34.2734C317.456 34.3255 316.688 34.4427 315.906 34.625C315.125 34.8073 314.461 35.0547 313.914 35.3672L313.797 34.4688C314.526 34.1823 315.19 33.6484 315.789 32.8672C316.414 32.0599 316.805 30.8099 316.961 29.1172C317.039 28.2839 317.117 27.4245 317.195 26.5391C317.299 25.6536 317.365 24.7552 317.391 23.8438C317.417 22.9323 317.404 21.9948 317.352 21.0312C317.299 20.0677 317.156 19.0781 316.922 18.0625C316.714 17.3333 316.479 16.6562 316.219 16.0312C316.01 15.5104 315.737 15.0286 315.398 14.5859C315.086 14.1172 314.734 13.8307 314.344 13.7266L314.266 12.8281C314.578 12.8802 314.969 12.9323 315.438 12.9844C315.932 13.0365 316.453 13.0885 317 13.1406C317.547 13.1667 318.107 13.1797 318.68 13.1797C319.253 13.1797 319.799 13.1536 320.32 13.1016C320.216 13.5703 320.073 14.4427 319.891 15.7188C319.734 16.9948 319.604 18.4271 319.5 20.0156C319.839 19.2344 320.281 18.362 320.828 17.3984C321.375 16.4349 322.013 15.5495 322.742 14.7422C323.471 13.9349 324.292 13.2839 325.203 12.7891C326.115 12.2682 327.117 12.0599 328.211 12.1641C328.862 12.2422 329.396 12.4635 329.812 12.8281C330.255 13.1927 330.594 13.6224 330.828 14.1172C331.089 14.612 331.258 15.1328 331.336 15.6797C331.44 16.2266 331.479 16.7214 331.453 17.1641Z" fill="black"/>
</g>
<defs>
<filter id="filter0_d_0_1" x="0.617188" y="0.796875" width="335.031" height="55.3047" filterUnits="userSpaceOnUse" color-interpolation-filters="sRGB">
<feFlood flood-opacity="0" result="BackgroundImageFix"/>
<feColorMatrix in="SourceAlpha" type="matrix" values="0 0 0 0 0 0 0 0 0 0 0 0 0 0 0 0 0 0 127 0" result="hardAlpha"/>
<feOffset dy="4"/>
<feGaussianBlur stdDeviation="2"/>
<feComposite in2="hardAlpha" operator="out"/>
<feColorMatrix type="matrix" values="0 0 0 0 0 0 0 0 0 0 0 0 0 0 0 0 0 0 0.25 0"/>
<feBlend mode="normal" in2="BackgroundImageFix" result="effect1_dropShadow_0_1"/>
<feBlend mode="normal" in="SourceGraphic" in2="effect1_dropShadow_0_1" result="shape"/>
</filter>
</defs>
</svg>
